O4 L6 C<EE>C L2CL6P10 <EE>CC<EFEDDDB L2BL6P10 DDBBDED CCCA L2AP10 L6CCAACDC<BBB>G+ L2G+L6P10 L3ABF L2EL6P10
O4 L6 C<EE>C L2CL6P10 <EE>CC<EFEDDDB L2BL6P10 DDBBDED CCCA L2AP10 L6CCAACDC<BBB>G+ L2G+L6P10 L3ABG+ >L2C+P10
O4 L3DE<A>FL5 P14 <A> L4FL5 <AAB L3BL5>DFD L2EL5 P10 <G>E<GGA L2AL5 P10 >CEC L2DL5 P10 <B>D<B >C. D.. E<A>CE L3FL5 <GAB>C< L2BL5 >CD<F L3EL5 P10 EFGB L2AL5 P10 AGFE L2D+L5 P10 F+AF+ L2G+ P10
O4 L6 C<EE>C L2CL6P10 <EE>CC<EFEDDDB L2BL6P10 DDBBDED CCCA L2AP10 L6CCAACDC<BBB>G+ L2G+L6P10 L3ABG+ L1A